<svg width="1200" height="630" viewBox="0 0 1200 630" fill="none" xmlns="http://www.w3.org/2000/svg">
  <rect width="1200" height="630" fill="#0f121a"/>
  <rect x="48" y="48" width="1104" height="534" rx="20" fill="#181b22" stroke="#2a2e39" stroke-width="3"/>
  <text x="88" y="100" fill="#9cc2ff" font-size="22" font-weight="bold" font-family="Arial, Helvetica, sans-serif">CALCULO JURIDICO</text>
  <text x="88" y="128" fill="#b2b8c7" font-size="16" font-family="Arial, Helvetica, sans-serif">Oliveira e Costa  landing B2B</text>
  <rect x="88" y="160" width="480" height="360" rx="16" fill="#111217" stroke="#2a2e39" stroke-width="2"/>
  <text x="112" y="210" fill="#e8ebf3" font-size="24" font-weight="bold" font-family="Arial, Helvetica, sans-serif">Calculos processuais</text>
  <rect x="112" y="230" width="320" height="12" rx="4" fill="#3d4659"/>
  <rect x="112" y="252" width="280" height="12" rx="4" fill="#2a2e39"/>
  <rect x="112" y="290" width="200" height="44" rx="10" fill="#4b8dff"/>
  <text x="142" y="318" fill="#0a0e18" font-size="14" font-weight="bold" font-family="Arial, Helvetica, sans-serif">Solicitar demo</text>
  <rect x="112" y="360" width="420" height="64" rx="10" fill="#151922"/>
  <text x="132" y="388" fill="#7aa2ff" font-size="13" font-weight="bold" font-family="Arial, Helvetica, sans-serif">Prazos " Honorarios " Correcao</text>
  <text x="132" y="410" fill="#94a3b8" font-size="12" font-family="Arial, Helvetica, sans-serif">Ferramenta para advogados</text>
  <rect x="600" y="160" width="512" height="360" rx="16" fill="#111217" stroke="#2a2e39" stroke-width="2"/>
  <text x="624" y="200" fill="#e8ebf3" font-size="14" font-weight="bold" font-family="Arial, Helvetica, sans-serif">Servicos</text>
  <rect x="624" y="220" width="220" height="140" rx="12" fill="#1a2438"/>
  <circle cx="734" cy="270" r="28" fill="#242936" stroke="#4b8dff" stroke-width="2"/>
  <text x="680" y="330" fill="#e8ebf3" font-size="13" font-family="Arial, Helvetica, sans-serif">Prazos</text>
  <rect x="864" y="220" width="220" height="140" rx="12" fill="#1a2438"/>
  <text x="920" y="290" fill="#e8ebf3" font-size="28" font-weight="bold" font-family="Arial, Helvetica, sans-serif">R$</text>
  <text x="900" y="330" fill="#e8ebf3" font-size="13" font-family="Arial, Helvetica, sans-serif">Honorarios</text>
  <rect x="624" y="380" width="460" height="120" rx="12" fill="#151922"/>
  <text x="644" y="415" fill="#94a3b8" font-size="13" font-family="Arial, Helvetica, sans-serif">Depoimentos e equipe especializada</text>
  <rect x="644" y="440" width="200" height="36" rx="8" fill="#1e2430" stroke="#7aa2ff" stroke-width="1"/>
  <text x="668" y="463" fill="#7aa2ff" font-size="12" font-family="Arial, Helvetica, sans-serif">E-book cortesia</text>
</svg>
