<svg width="1200" height="630" viewBox="0 0 1200 630" fill="none" xmlns="http://www.w3.org/2000/svg">
  <rect width="1200" height="630" fill="#0f121a"/>
  <rect x="48" y="48" width="1104" height="534" rx="20" fill="#181b22" stroke="#2a2e39" stroke-width="3"/>
  <text x="88" y="100" fill="#9cc2ff" font-size="22" font-weight="bold" font-family="Arial, Helvetica, sans-serif">CN CONSTRUTORA</text>
  <text x="88" y="128" fill="#b2b8c7" font-size="16" font-family="Arial, Helvetica, sans-serif">Construcao civil  site institucional</text>
  <rect x="88" y="160" width="560" height="360" rx="16" fill="#111217" stroke="#2a2e39" stroke-width="2"/>
  <rect x="108" y="180" width="520" height="180" rx="12" fill="#1a2438"/>
  <rect x="140" y="220" width="80" height="100" rx="4" fill="#242936"/>
  <rect x="240" y="180" width="60" height="140" rx="4" fill="#3d4659"/>
  <rect x="320" y="200" width="70" height="120" rx="4" fill="#2a3140"/>
  <rect x="410" y="160" width="50" height="160" rx="4" fill="#4b8dff" opacity="0.6"/>
  <rect x="108" y="380" width="280" height="16" rx="4" fill="#3d4659"/>
  <rect x="108" y="408" width="220" height="12" rx="4" fill="#2a2e39"/>
  <rect x="108" y="440" width="180" height="40" rx="10" fill="#f59e0b"/>
  <text x="132" y="466" fill="#0a0e18" font-size="14" font-weight="bold" font-family="Arial, Helvetica, sans-serif">Solicitar orcamento</text>
  <rect x="680" y="160" width="432" height="360" rx="16" fill="#111217" stroke="#2a2e39" stroke-width="2"/>
  <text x="704" y="200" fill="#e8ebf3" font-size="14" font-weight="bold" font-family="Arial, Helvetica, sans-serif">Nossos servicos</text>
  <rect x="704" y="220" width="384" height="56" rx="10" fill="#151922"/>
  <rect x="724" y="240" width="24" height="24" rx="6" fill="#f59e0b"/>
  <text x="760" y="256" fill="#e8ebf3" font-size="14" font-family="Arial, Helvetica, sans-serif">Obras residenciais</text>
  <rect x="704" y="290" width="384" height="56" rx="10" fill="#151922"/>
  <rect x="724" y="310" width="24" height="24" rx="6" fill="#f59e0b"/>
  <text x="760" y="326" fill="#e8ebf3" font-size="14" font-family="Arial, Helvetica, sans-serif">Reformas e ampliacoes</text>
  <rect x="704" y="360" width="384" height="56" rx="10" fill="#151922"/>
  <rect x="724" y="380" width="24" height="24" rx="6" fill="#f59e0b"/>
  <text x="760" y="396" fill="#e8ebf3" font-size="14" font-family="Arial, Helvetica, sans-serif">Projetos comerciais</text>
</svg>
