<svg width="1200" height="630" viewBox="0 0 1200 630" fill="none" xmlns="http://www.w3.org/2000/svg">
  <rect width="1200" height="630" fill="#0f121a"/>
  <rect x="48" y="48" width="1104" height="534" rx="20" fill="#181b22" stroke="#2a2e39" stroke-width="3"/>
  <text x="88" y="100" fill="#9cc2ff" font-size="22" font-weight="bold" font-family="Arial, sans-serif">CONSULTORIA</text>
  <text x="88" y="128" fill="#b2b8c7" font-size="16" font-family="Arial, sans-serif">Diagnóstico, arquitetura e operaçăo</text>
  <rect x="88" y="160" width="420" height="360" rx="16" fill="#111217" stroke="#2a2e39" stroke-width="2"/>
  <text x="118" y="200" fill="#e8ebf3" font-size="14" font-weight="bold" font-family="Arial, sans-serif">Contexto</text>
  <rect x="118" y="220" width="360" height="12" rx="4" fill="#2a2e39"/>
  <rect x="118" y="242" width="300" height="12" rx="4" fill="#2a2e39"/>
  <rect x="118" y="264" width="330" height="12" rx="4" fill="#2a2e39"/>
  <text x="118" y="310" fill="#e8ebf3" font-size="14" font-weight="bold" font-family="Arial, sans-serif">Soluçăo</text>
  <rect x="118" y="330" width="340" height="12" rx="4" fill="#3d4659"/>
  <rect x="118" y="352" width="280" height="12" rx="4" fill="#3d4659"/>
  <text x="118" y="398" fill="#e8ebf3" font-size="14" font-weight="bold" font-family="Arial, sans-serif">Resultado</text>
  <rect x="118" y="418" width="320" height="12" rx="4" fill="#4b8dff"/>
  <rect x="118" y="440" width="260" height="12" rx="4" fill="#4b8dff"/>
  <rect x="548" y="160" width="570" height="360" rx="16" fill="#111217" stroke="#2a2e39" stroke-width="2"/>
  <circle cx="620" cy="240" r="36" fill="#1e2430" stroke="#7aa2ff" stroke-width="2"/>
  <rect x="690" y="210" width="360" height="16" rx="6" fill="#2a2e39"/>
  <rect x="690" y="238" width="280" height="12" rx="4" fill="#242936"/>
  <circle cx="620" cy="340" r="36" fill="#1e2430" stroke="#25d366" stroke-width="2"/>
  <rect x="690" y="310" width="340" height="16" rx="6" fill="#2a2e39"/>
  <rect x="690" y="338" width="300" height="12" rx="4" fill="#242936"/>
  <circle cx="620" cy="440" r="36" fill="#1e2430" stroke="#f59e0b" stroke-width="2"/>
  <rect x="690" y="410" width="320" height="16" rx="6" fill="#2a2e39"/>
  <rect x="690" y="438" width="250" height="12" rx="4" fill="#242936"/>
</svg>
