<svg width="1200" height="630" viewBox="0 0 1200 630" fill="none" xmlns="http://www.w3.org/2000/svg">
  <rect width="1200" height="630" fill="#0f121a"/>
  <rect x="48" y="48" width="1104" height="534" rx="20" fill="#181b22" stroke="#2a2e39" stroke-width="3"/>
  <text x="88" y="100" fill="#9cc2ff" font-size="22" font-weight="bold" font-family="Arial, sans-serif">CONSULTORIA</text>
  <text x="88" y="128" fill="#b2b8c7" font-size="16" font-family="Arial, sans-serif">Diagnóstico, arquitetura e direçăo técnica</text>
  <rect x="88" y="160" width="340" height="360" rx="16" fill="#111217" stroke="#2a2e39" stroke-width="2"/>
  <text x="108" y="195" fill="#e8ebf3" font-size="14" font-weight="bold" font-family="Arial, sans-serif">Objetivo</text>
  <rect x="108" y="210" width="300" height="14" rx="4" fill="#3d4659"/>
  <rect x="108" y="234" width="260" height="14" rx="4" fill="#3d4659"/>
  <rect x="108" y="258" width="280" height="14" rx="4" fill="#3d4659"/>
  <rect x="108" y="300" width="300" height="14" rx="4" fill="#2a3140"/>
  <rect x="108" y="324" width="220" height="14" rx="4" fill="#2a3140"/>
  <rect x="448" y="160" width="340" height="360" rx="16" fill="#111217" stroke="#4b8dff" stroke-width="2"/>
  <text x="468" y="195" fill="#7aa2ff" font-size="14" font-weight="bold" font-family="Arial, sans-serif">Plano de açăo</text>
  <circle cx="488" cy="240" r="8" fill="#4b8dff"/>
  <rect x="508" y="232" width="240" height="14" rx="4" fill="#3d4659"/>
  <circle cx="488" cy="280" r="8" fill="#4b8dff"/>
  <rect x="508" y="272" width="200" height="14" rx="4" fill="#3d4659"/>
  <circle cx="488" cy="320" r="8" fill="#4b8dff"/>
  <rect x="508" y="312" width="260" height="14" rx="4" fill="#3d4659"/>
  <circle cx="488" cy="360" r="8" fill="#25d366"/>
  <rect x="508" y="352" width="180" height="14" rx="4" fill="#3d4659"/>
  <rect x="808" y="160" width="340" height="360" rx="16" fill="#111217" stroke="#2a2e39" stroke-width="2"/>
  <text x="828" y="195" fill="#e8ebf3" font-size="14" font-weight="bold" font-family="Arial, sans-serif">Entrega</text>
  <rect x="828" y="220" width="140" height="80" rx="12" fill="#1e2430"/>
  <text x="848" y="255" fill="#7aa2ff" font-size="13" font-family="Arial, sans-serif">Stack</text>
  <rect x="988" y="220" width="140" height="80" rx="12" fill="#1e2430"/>
  <text x="1008" y="255" fill="#7aa2ff" font-size="13" font-family="Arial, sans-serif">Processo</text>
  <rect x="828" y="320" width="300" height="80" rx="12" fill="#1a2e1f" stroke="#25d366" stroke-width="1"/>
  <text x="848" y="365" fill="#25d366" font-size="13" font-weight="bold" font-family="Arial, sans-serif">Resultado mensurável</text>
</svg>
