<svg width="1200" height="630" viewBox="0 0 1200 630" fill="none" xmlns="http://www.w3.org/2000/svg">
  <rect width="1200" height="630" fill="#0f121a"/>
  <rect x="48" y="48" width="1104" height="534" rx="20" fill="#181b22" stroke="#2a2e39" stroke-width="3"/>
  <text x="88" y="100" fill="#9cc2ff" font-size="22" font-weight="bold" font-family="Arial, Helvetica, sans-serif">MELHOR PRECO</text>
  <text x="88" y="128" fill="#b2b8c7" font-size="16" font-family="Arial, Helvetica, sans-serif">Comparacao e decisao de compra</text>
  <rect x="88" y="160" width="500" height="340" rx="16" fill="#111217" stroke="#2a2e39" stroke-width="2"/>
  <text x="112" y="200" fill="#e8ebf3" font-size="14" font-weight="bold" font-family="Arial, Helvetica, sans-serif">Cenario A</text>
  <rect x="112" y="220" width="72" height="200" rx="8" fill="#2a3140"/>
  <rect x="200" y="260" width="72" height="160" rx="8" fill="#3d4659"/>
  <rect x="288" y="235" width="72" height="185" rx="8" fill="#4b8dff"/>
  <rect x="376" y="285" width="72" height="135" rx="8" fill="#242936"/>
  <line x1="112" y1="440" x2="448" y2="440" stroke="#2a2e39" stroke-width="2"/>
  <text x="112" y="472" fill="#25d366" font-size="17" font-weight="bold" font-family="Arial, Helvetica, sans-serif">Melhor margem: Cenario A</text>
  <rect x="620" y="160" width="480" height="340" rx="16" fill="#111217" stroke="#2a2e39" stroke-width="2"/>
  <text x="644" y="200" fill="#e8ebf3" font-size="14" font-weight="bold" font-family="Arial, Helvetica, sans-serif">Comparativo rapido</text>
  <rect x="644" y="224" width="432" height="48" rx="10" fill="#1a2e1f" stroke="#25d366" stroke-width="2"/>
  <text x="664" y="254" fill="#e8ebf3" font-size="14" font-family="Arial, Helvetica, sans-serif">Fornecedor A - R$ 89,90</text>
  <text x="1000" y="254" fill="#25d366" font-size="13" font-weight="bold" font-family="Arial, Helvetica, sans-serif">+12%</text>
  <rect x="644" y="286" width="432" height="48" rx="10" fill="#1e2430"/>
  <text x="664" y="316" fill="#e8ebf3" font-size="14" font-family="Arial, Helvetica, sans-serif">Fornecedor B - R$ 94,50</text>
  <rect x="644" y="348" width="432" height="48" rx="10" fill="#1e2430"/>
  <text x="664" y="378" fill="#e8ebf3" font-size="14" font-family="Arial, Helvetica, sans-serif">Fornecedor C - R$ 97,20</text>
  <rect x="644" y="420" width="160" height="40" rx="10" fill="#4b8dff"/>
  <text x="688" y="446" fill="#0a0e18" font-size="14" font-weight="bold" font-family="Arial, Helvetica, sans-serif">Analisar</text>
  <circle cx="1020" cy="440" r="32" fill="#1e2430" stroke="#7aa2ff" stroke-width="2"/>
  <text x="1010" y="448" fill="#7aa2ff" font-size="20" font-weight="bold" font-family="Arial, Helvetica, sans-serif">%</text>
</svg>
