<svg width="1200" height="630" viewBox="0 0 1200 630" fill="none" xmlns="http://www.w3.org/2000/svg">
  <rect width="1200" height="630" fill="#0f121a"/>
  <rect x="48" y="48" width="1104" height="534" rx="20" fill="#181b22" stroke="#2a2e39" stroke-width="3"/>
  <text x="88" y="100" fill="#9cc2ff" font-size="22" font-weight="bold" font-family="Arial, sans-serif">MS</text>
  <text x="88" y="128" fill="#b2b8c7" font-size="16" font-family="Arial, sans-serif">Disparo de mensagens WhatsApp</text>
  <rect x="88" y="160" width="480" height="360" rx="16" fill="#111217" stroke="#2a2e39" stroke-width="2"/>
  <rect x="108" y="185" width="200" height="28" rx="6" fill="#1a1f2a"/>
  <text x="118" y="204" fill="#94a3b8" font-size="12" font-family="Arial, sans-serif">Fila de envio</text>
  <rect x="108" y="230" width="440" height="48" rx="8" fill="#1e2430" stroke="#4b8dff" stroke-width="1"/>
  <circle cx="132" cy="254" r="10" fill="#25d366"/>
  <rect x="152" y="244" width="280" height="10" rx="4" fill="#3d4659"/>
  <text x="450" y="258" fill="#7aa2ff" font-size="11" font-family="Arial, sans-serif">Enviado</text>
  <rect x="108" y="290" width="440" height="48" rx="8" fill="#1a1f2a"/>
  <circle cx="132" cy="314" r="10" fill="#7aa2ff"/>
  <rect x="152" y="304" width="240" height="10" rx="4" fill="#3d4659"/>
  <text x="450" y="318" fill="#94a3b8" font-size="11" font-family="Arial, sans-serif">Na fila</text>
  <rect x="108" y="350" width="440" height="48" rx="8" fill="#1a1f2a"/>
  <circle cx="132" cy="374" r="10" fill="#7aa2ff"/>
  <rect x="152" y="364" width="200" height="10" rx="4" fill="#3d4659"/>
  <text x="450" y="388" fill="#94a3b8" font-size="11" font-family="Arial, sans-serif">Agendado</text>
  <rect x="108" y="420" width="200" height="44" rx="10" fill="#4b8dff"/>
  <text x="155" y="448" fill="#0a0e18" font-size="14" font-weight="bold" font-family="Arial, sans-serif">Enviar lote</text>
  <rect x="600" y="160" width="500" height="360" rx="16" fill="#111217" stroke="#2a2e39" stroke-width="2"/>
  <text x="620" y="195" fill="#e8ebf3" font-size="14" font-weight="bold" font-family="Arial, sans-serif">Modelo + destinatarios</text>
  <rect x="620" y="220" width="460" height="120" rx="10" fill="#151922"/>
  <rect x="640" y="240" width="300" height="12" rx="4" fill="#3d4659"/>
  <rect x="640" y="262" width="380" height="12" rx="4" fill="#2a2e39"/>
  <rect x="640" y="284" width="220" height="12" rx="4" fill="#2a2e39"/>
  <rect x="620" y="360" width="220" height="140" rx="10" fill="#1a2e1f" stroke="#25d366" stroke-width="1"/>
  <text x="640" y="390" fill="#25d366" font-size="13" font-weight="bold" font-family="Arial, sans-serif">Excel importado</text>
  <rect x="640" y="410" width="180" height="10" rx="4" fill="#2a4a35"/>
  <rect x="640" y="430" width="160" height="10" rx="4" fill="#2a4a35"/>
  <rect x="640" y="450" width="140" height="10" rx="4" fill="#2a4a35"/>
  <rect x="860" y="360" width="220" height="140" rx="10" fill="#1e2430"/>
  <text x="880" y="395" fill="#7aa2ff" font-size="28" font-weight="bold" font-family="Arial, sans-serif">1.2k</text>
  <text x="880" y="420" fill="#b2b8c7" font-size="13" font-family="Arial, sans-serif">mensagens na fila</text>
</svg>
