<svg width="1200" height="630" viewBox="0 0 1200 630" fill="none" xmlns="http://www.w3.org/2000/svg">
  <rect width="1200" height="630" fill="#0f121a"/>
  <rect x="48" y="48" width="1104" height="534" rx="20" fill="#181b22" stroke="#2a2e39" stroke-width="3"/>
  <text x="88" y="100" fill="#f0b429" font-size="22" font-weight="bold" font-family="Arial, sans-serif">TOP SECRET</text>
  <text x="88" y="128" fill="#b2b8c7" font-size="16" font-family="Arial, sans-serif">Projetos em produþÒo sob confidencialidade</text>
  <rect x="400" y="170" width="400" height="340" rx="20" fill="#111217" stroke="#f0b429" stroke-width="2"/>
  <rect x="560" y="230" width="80" height="100" rx="12" fill="#1e2430" stroke="#f0b429" stroke-width="3"/>
  <circle cx="600" cy="270" r="18" fill="#2a3140" stroke="#f0b429" stroke-width="2"/>
  <rect x="592" y="295" width="16" height="28" rx="4" fill="#f0b429"/>
  <text x="430" y="370" fill="#e8ebf3" font-size="15" font-weight="bold" font-family="Arial, sans-serif">Acesso restrito</text>
  <rect x="430" y="390" width="340" height="12" rx="4" fill="#3d4659"/>
  <rect x="430" y="412" width="280" height="12" rx="4" fill="#3d4659"/>
  <rect x="430" y="434" width="300" height="12" rx="4" fill="#3d4659"/>
  <rect x="88" y="160" width="260" height="360" rx="16" fill="#111217" stroke="#2a2e39" stroke-width="2"/>
  <text x="108" y="195" fill="#94a3b8" font-size="12" font-family="Arial, sans-serif">Sistemas internos</text>
  <rect x="108" y="220" width="220" height="48" rx="8" fill="#242936"/>
  <rect x="108" y="280" width="220" height="48" rx="8" fill="#242936"/>
  <rect x="108" y="340" width="220" height="48" rx="8" fill="#242936"/>
  <rect x="852" y="160" width="260" height="360" rx="16" fill="#111217" stroke="#2a2e39" stroke-width="2"/>
  <text x="872" y="195" fill="#94a3b8" font-size="12" font-family="Arial, sans-serif">Sem exposiþÒo p·blica</text>
  <rect x="872" y="220" width="220" height="14" rx="4" fill="#3d4659"/>
  <rect x="872" y="244" width="180" height="14" rx="4" fill="#3d4659"/>
  <rect x="872" y="268" width="200" height="14" rx="4" fill="#3d4659"/>
  <rect x="872" y="310" width="220" height="60" rx="10" fill="#1a1f2a" stroke="#f0b429" stroke-width="1"/>
  <text x="888" y="345" fill="#f0b429" font-size="12" font-family="Arial, sans-serif">NDA / confidencial</text>
</svg>
