<svg width="1200" height="630" viewBox="0 0 1200 630" fill="none" xmlns="http://www.w3.org/2000/svg">
  <rect width="1200" height="630" fill="#0f121a"/>
  <rect x="48" y="48" width="1104" height="534" rx="20" fill="#181b22" stroke="#2a2e39" stroke-width="3"/>
  <text x="88" y="100" fill="#f59e0b" font-size="22" font-weight="bold" font-family="Arial, Helvetica, sans-serif">SOB SIGILO</text>
  <text x="88" y="128" fill="#b2b8c7" font-size="16" font-family="Arial, Helvetica, sans-serif">Operacao comercial · sigilo</text>
  <rect x="88" y="160" width="720" height="360" rx="16" fill="#111217" stroke="#2a2e39" stroke-width="2"/>
  <rect x="108" y="185" width="140" height="300" rx="10" fill="#151922"/>
  <rect x="118" y="210" width="110" height="48" rx="8" fill="#1e2430" stroke="#f59e0b" stroke-width="1"/>
  <rect x="118" y="270" width="110" height="48" rx="8" fill="#1a1f2a"/>
  <rect x="118" y="330" width="110" height="48" rx="8" fill="#1a1f2a"/>
  <rect x="268" y="185" width="160" height="300" rx="10" fill="#151922"/>
  <text x="288" y="215" fill="#94a3b8" font-size="12" font-family="Arial, Helvetica, sans-serif">Prospeccao</text>
  <rect x="278" y="233" width="130" height="56" rx="8" fill="#242936"/>
  <rect x="448" y="185" width="160" height="300" rx="10" fill="#151922"/>
  <text x="468" y="215" fill="#94a3b8" font-size="12" font-family="Arial, Helvetica, sans-serif">Negociacao</text>
  <rect x="458" y="233" width="130" height="56" rx="8" fill="#2a3140" stroke="#f59e0b" stroke-width="1"/>
  <rect x="628" y="185" width="160" height="300" rx="10" fill="#151922"/>
  <text x="648" y="215" fill="#94a3b8" font-size="12" font-family="Arial, Helvetica, sans-serif">Fechado</text>
  <rect x="658" y="233" width="130" height="56" rx="8" fill="#1a2e1f" stroke="#25d366" stroke-width="1"/>
  <rect x="838" y="160" width="270" height="360" rx="16" fill="#111217" stroke="#f59e0b" stroke-width="2"/>
  <circle cx="973" cy="280" r="56" fill="#1a1f2a" stroke="#f59e0b" stroke-width="3"/>
  <path d="M945 280 L945 252 C945 234 958 220 973 220 C988 220 1001 234 1001 252 L1001 280" stroke="#f59e0b" stroke-width="7" stroke-linecap="round"/>
  <rect x="937" y="278" width="72" height="58" rx="10" fill="#242936" stroke="#f59e0b" stroke-width="3"/>
  <circle cx="973" cy="304" r="8" fill="#f59e0b"/>
  <rect x="968" y="310" width="10" height="16" rx="5" fill="#f59e0b"/>
  <text x="900" y="370" fill="#e8ebf3" font-size="16" font-weight="bold" font-family="Arial, Helvetica, sans-serif">Somente descricao publica</text>
  <text x="862" y="400" fill="#94a3b8" font-size="13" font-family="Arial, Helvetica, sans-serif">Sem telas, codigo ou dados do cliente</text>
</svg>
