<svg width="1200" height="630" viewBox="0 0 1200 630" fill="none" xmlns="http://www.w3.org/2000/svg">
  <rect width="1200" height="630" fill="#0f121a"/>
  <rect x="48" y="48" width="1104" height="534" rx="20" fill="#181b22" stroke="#2a2e39" stroke-width="3"/>
  <text x="88" y="100" fill="#f59e0b" font-size="22" font-weight="bold" font-family="Arial, Helvetica, sans-serif">SOB SIGILO</text>
  <text x="88" y="128" fill="#b2b8c7" font-size="16" font-family="Arial, Helvetica, sans-serif">Contratos e documentos - sigilo</text>
  <rect x="88" y="160" width="720" height="360" rx="16" fill="#111217" stroke="#2a2e39" stroke-width="2"/>
  <text x="112" y="196" fill="#94a3b8" font-size="12" font-family="Arial, Helvetica, sans-serif">CONTRATOS ATIVOS</text>
  <rect x="112" y="216" width="215" height="220" rx="10" fill="#151922"/>
  <rect x="130" y="234" width="120" height="80" rx="6" fill="#1a1f2a" stroke="#2a2e39" stroke-width="1"/>
  <rect x="140" y="248" width="90" height="8" rx="4" fill="#3d4659"/>
  <rect x="140" y="264" width="70" height="8" rx="4" fill="#2a2e39"/>
  <rect x="130" y="326" width="170" height="26" rx="8" fill="#132a1c" stroke="#25d366" stroke-width="1"/>
  <text x="142" y="344" fill="#7fd99b" font-size="11" font-family="Arial, Helvetica, sans-serif">vigente</text>
  <rect x="343" y="216" width="215" height="220" rx="10" fill="#151922"/>
  <rect x="361" y="234" width="120" height="80" rx="6" fill="#1a1f2a" stroke="#2a2e39" stroke-width="1"/>
  <rect x="371" y="248" width="90" height="8" rx="4" fill="#3d4659"/>
  <rect x="371" y="264" width="70" height="8" rx="4" fill="#2a2e39"/>
  <rect x="361" y="326" width="170" height="26" rx="8" fill="#241d10" stroke="#f59e0b" stroke-width="1"/>
  <text x="373" y="344" fill="#fbbf6b" font-size="11" font-family="Arial, Helvetica, sans-serif">vence em 7 dias</text>
  <rect x="574" y="216" width="200" height="220" rx="10" fill="#151922"/>
  <rect x="592" y="234" width="120" height="80" rx="6" fill="#1a1f2a" stroke="#2a2e39" stroke-width="1"/>
  <rect x="602" y="248" width="90" height="8" rx="4" fill="#3d4659"/>
  <rect x="602" y="264" width="70" height="8" rx="4" fill="#2a2e39"/>
  <rect x="592" y="326" width="150" height="26" rx="8" fill="#1a1f2a"/>
  <text x="604" y="344" fill="#94a3b8" font-size="11" font-family="Arial, Helvetica, sans-serif">em revisão</text>
  <rect x="838" y="160" width="270" height="360" rx="16" fill="#111217" stroke="#f59e0b" stroke-width="2"/>
  <circle cx="973" cy="280" r="56" fill="#1a1f2a" stroke="#f59e0b" stroke-width="3"/>
  <path d="M945 280 L945 252 C945 234 958 220 973 220 C988 220 1001 234 1001 252 L1001 280" stroke="#f59e0b" stroke-width="7" stroke-linecap="round"/>
  <rect x="937" y="278" width="72" height="58" rx="10" fill="#242936" stroke="#f59e0b" stroke-width="3"/>
  <circle cx="973" cy="304" r="8" fill="#f59e0b"/>
  <rect x="968" y="310" width="10" height="16" rx="5" fill="#f59e0b"/>
</svg>
