<svg width="1200" height="630" viewBox="0 0 1200 630" fill="none" xmlns="http://www.w3.org/2000/svg">
  <rect width="1200" height="630" fill="#0f121a"/>
  <rect x="48" y="48" width="1104" height="534" rx="20" fill="#181b22" stroke="#2a2e39" stroke-width="3"/>
  <text x="88" y="100" fill="#f59e0b" font-size="22" font-weight="bold" font-family="Arial, Helvetica, sans-serif">TOP SECRET</text>
  <text x="88" y="128" fill="#b2b8c7" font-size="16" font-family="Arial, Helvetica, sans-serif">Automacao WhatsApp confidencial</text>
  <rect x="120" y="170" width="260" height="480" rx="28" fill="#111217" stroke="#2a2e39" stroke-width="3"/>
  <circle cx="250" cy="310" r="48" fill="#25d366" opacity="0.35"/>
  <rect x="150" y="400" width="200" height="12" rx="4" fill="#3d4659"/>
  <rect x="150" y="428" width="160" height="10" rx="4" fill="#2a2e39"/>
  <rect x="460" y="200" width="120" height="120" rx="16" fill="#1a2438" stroke="#f59e0b" stroke-width="2"/>
  <path d="M490 250 L510 270 L530 245" stroke="#f59e0b" stroke-width="4" stroke-linecap="round" stroke-linejoin="round"/>
  <text x="488" y="345" fill="#f59e0b" font-size="13" font-weight="bold" font-family="Arial, Helvetica, sans-serif">HTTPS</text>
  <line x1="380" y1="310" x2="460" y2="260" stroke="#f59e0b" stroke-width="3" stroke-dasharray="8 6"/>
  <line x1="580" y1="260" x2="660" y2="220" stroke="#4b8dff" stroke-width="3" opacity="0.45"/>
  <line x1="580" y1="280" x2="660" y2="320" stroke="#4b8dff" stroke-width="3" opacity="0.45"/>
  <line x1="580" y1="300" x2="660" y2="420" stroke="#4b8dff" stroke-width="3" opacity="0.45"/>
  <rect x="660" y="180" width="210" height="72" rx="12" fill="#151922" stroke="#2a2e39" stroke-width="2"/>
  <text x="690" y="224" fill="#94a3b8" font-size="14" font-family="Arial, Helvetica, sans-serif">Bot interno</text>
  <rect x="660" y="280" width="210" height="72" rx="12" fill="#151922" stroke="#2a2e39" stroke-width="2"/>
  <text x="690" y="324" fill="#94a3b8" font-size="14" font-family="Arial, Helvetica, sans-serif">Disparador</text>
  <rect x="660" y="380" width="210" height="72" rx="12" fill="#151922" stroke="#2a2e39" stroke-width="2"/>
  <text x="690" y="424" fill="#94a3b8" font-size="14" font-family="Arial, Helvetica, sans-serif">Sistemas internos</text>
  <rect x="920" y="200" width="220" height="280" rx="16" fill="#111217" stroke="#f59e0b" stroke-width="2"/>
  <circle cx="1030" cy="310" r="52" fill="#1a1f2a" stroke="#f59e0b" stroke-width="3"/>
  <path d="M1002 310 L1002 282 C1002 264 1015 250 1030 250 C1045 250 1058 264 1058 282 L1058 310" stroke="#f59e0b" stroke-width="7" stroke-linecap="round"/>
  <rect x="994" y="308" width="72" height="58" rx="10" fill="#242936" stroke="#f59e0b" stroke-width="3"/>
  <circle cx="1030" cy="334" r="8" fill="#f59e0b"/>
  <text x="940" y="400" fill="#e8ebf3" font-size="15" font-weight="bold" font-family="Arial, Helvetica, sans-serif">Canal sob sigilo</text>
  <text x="928" y="430" fill="#94a3b8" font-size="12" font-family="Arial, Helvetica, sans-serif">Arquitetura nao publicada</text>
</svg>
